<mxfile host="app.diagrams.net" modified="2024-06-23T14:09:17.910Z" agent="Mozilla/5.0 (Macintosh; Intel Mac OS X 10_15_7) AppleWebKit/537.36 (KHTML, like Gecko) Chrome/126.0.0.0 Safari/537.36" etag="hr9tmZ71uMaKiCn7-IQL" version="24.4.13" type="github">
  <diagram name="ページ1" id="szWeKx5pFOlwJt_7vksH">
    <mxGraphModel dx="1674" dy="786" grid="1" gridSize="10" guides="1" tooltips="1" connect="1" arrows="1" fold="1" page="1" pageScale="1" pageWidth="827" pageHeight="1169" math="0" shadow="0">
      <root>
        <mxCell id="0" />
        <mxCell id="1" parent="0" />
        <mxCell id="TT2iFtD28jyIN-6uqShI-1" value="AWS Cloud" style="points=[[0,0],[0.25,0],[0.5,0],[0.75,0],[1,0],[1,0.25],[1,0.5],[1,0.75],[1,1],[0.75,1],[0.5,1],[0.25,1],[0,1],[0,0.75],[0,0.5],[0,0.25]];outlineConnect=0;gradientColor=none;html=1;whiteSpace=wrap;fontSize=12;fontStyle=0;container=1;pointerEvents=0;collapsible=0;recursiveResize=0;shape=mxgraph.aws4.group;grIcon=mxgraph.aws4.group_aws_cloud;strokeColor=#232F3E;fillColor=none;verticalAlign=top;align=left;spacingLeft=30;fontColor=#232F3E;dashed=0;" parent="1" vertex="1">
          <mxGeometry x="140" y="170" width="820" height="670" as="geometry" />
        </mxCell>
        <mxCell id="TT2iFtD28jyIN-6uqShI-2" value="VPC" style="points=[[0,0],[0.25,0],[0.5,0],[0.75,0],[1,0],[1,0.25],[1,0.5],[1,0.75],[1,1],[0.75,1],[0.5,1],[0.25,1],[0,1],[0,0.75],[0,0.5],[0,0.25]];outlineConnect=0;gradientColor=none;html=1;whiteSpace=wrap;fontSize=12;fontStyle=0;container=1;pointerEvents=0;collapsible=0;recursiveResize=0;shape=mxgraph.aws4.group;grIcon=mxgraph.aws4.group_vpc2;strokeColor=#8C4FFF;fillColor=none;verticalAlign=top;align=left;spacingLeft=30;fontColor=#AAB7B8;dashed=0;" parent="TT2iFtD28jyIN-6uqShI-1" vertex="1">
          <mxGeometry x="240" y="40" width="550" height="560" as="geometry" />
        </mxCell>
        <mxCell id="TT2iFtD28jyIN-6uqShI-3" value="Public subnet" style="points=[[0,0],[0.25,0],[0.5,0],[0.75,0],[1,0],[1,0.25],[1,0.5],[1,0.75],[1,1],[0.75,1],[0.5,1],[0.25,1],[0,1],[0,0.75],[0,0.5],[0,0.25]];outlineConnect=0;gradientColor=none;html=1;whiteSpace=wrap;fontSize=12;fontStyle=0;container=1;pointerEvents=0;collapsible=0;recursiveResize=0;shape=mxgraph.aws4.group;grIcon=mxgraph.aws4.group_security_group;grStroke=0;strokeColor=#7AA116;fillColor=#F2F6E8;verticalAlign=top;align=left;spacingLeft=30;fontColor=#248814;dashed=0;" parent="TT2iFtD28jyIN-6uqShI-2" vertex="1">
          <mxGeometry x="37" y="120" width="217" height="200" as="geometry" />
        </mxCell>
        <mxCell id="TT2iFtD28jyIN-6uqShI-5" value="&lt;span style=&quot;font-size: 16px;&quot;&gt;EC2&lt;/span&gt;" style="text;html=1;align=center;verticalAlign=middle;whiteSpace=wrap;rounded=0;" parent="TT2iFtD28jyIN-6uqShI-3" vertex="1">
          <mxGeometry x="134" y="133" width="60" height="30" as="geometry" />
        </mxCell>
        <mxCell id="TT2iFtD28jyIN-6uqShI-6" value="&lt;span style=&quot;color: rgb(22, 25, 31); font-family: &amp;quot;Amazon Ember&amp;quot;, &amp;quot;Helvetica Neue&amp;quot;, Roboto, Arial, sans-serif; text-align: start; text-wrap: nowrap; background-color: rgb(241, 250, 255);&quot;&gt;&lt;font style=&quot;font-size: 16px;&quot;&gt;10.0.10.0/24&lt;/font&gt;&lt;/span&gt;" style="text;html=1;align=center;verticalAlign=middle;whiteSpace=wrap;rounded=0;" parent="TT2iFtD28jyIN-6uqShI-3" vertex="1">
          <mxGeometry x="110" y="169" width="100" height="30" as="geometry" />
        </mxCell>
        <mxCell id="_2Wj-928AClty6SUkouG-1" value="" style="outlineConnect=0;dashed=0;verticalLabelPosition=bottom;verticalAlign=top;align=center;html=1;shape=mxgraph.aws3.ec2;fillColor=#F58534;gradientColor=none;" parent="TT2iFtD28jyIN-6uqShI-3" vertex="1">
          <mxGeometry x="57.5" y="40" width="76.5" height="93" as="geometry" />
        </mxCell>
        <mxCell id="TT2iFtD28jyIN-6uqShI-7" value="Private subnet" style="points=[[0,0],[0.25,0],[0.5,0],[0.75,0],[1,0],[1,0.25],[1,0.5],[1,0.75],[1,1],[0.75,1],[0.5,1],[0.25,1],[0,1],[0,0.75],[0,0.5],[0,0.25]];outlineConnect=0;gradientColor=none;html=1;whiteSpace=wrap;fontSize=12;fontStyle=0;container=1;pointerEvents=0;collapsible=0;recursiveResize=0;shape=mxgraph.aws4.group;grIcon=mxgraph.aws4.group_security_group;grStroke=0;strokeColor=#00A4A6;fillColor=#E6F6F7;verticalAlign=top;align=left;spacingLeft=30;fontColor=#147EBA;dashed=0;" parent="TT2iFtD28jyIN-6uqShI-2" vertex="1">
          <mxGeometry x="34" y="340" width="220" height="200" as="geometry" />
        </mxCell>
        <mxCell id="TT2iFtD28jyIN-6uqShI-8" value="" style="sketch=0;points=[[0,0,0],[0.25,0,0],[0.5,0,0],[0.75,0,0],[1,0,0],[0,1,0],[0.25,1,0],[0.5,1,0],[0.75,1,0],[1,1,0],[0,0.25,0],[0,0.5,0],[0,0.75,0],[1,0.25,0],[1,0.5,0],[1,0.75,0]];outlineConnect=0;fontColor=#232F3E;fillColor=#C925D1;strokeColor=#ffffff;dashed=0;verticalLabelPosition=bottom;verticalAlign=top;align=center;html=1;fontSize=12;fontStyle=0;aspect=fixed;shape=mxgraph.aws4.resourceIcon;resIcon=mxgraph.aws4.rds;" parent="TT2iFtD28jyIN-6uqShI-7" vertex="1">
          <mxGeometry x="59" y="70" width="78" height="78" as="geometry" />
        </mxCell>
        <mxCell id="TT2iFtD28jyIN-6uqShI-9" value="&lt;span style=&quot;font-size: 16px;&quot;&gt;RDS&lt;/span&gt;" style="text;html=1;align=center;verticalAlign=middle;whiteSpace=wrap;rounded=0;" parent="TT2iFtD28jyIN-6uqShI-7" vertex="1">
          <mxGeometry x="90" y="148" width="60" height="30" as="geometry" />
        </mxCell>
        <mxCell id="TT2iFtD28jyIN-6uqShI-10" value="&lt;span style=&quot;color: rgb(22, 25, 31); font-family: &amp;quot;Amazon Ember&amp;quot;, &amp;quot;Helvetica Neue&amp;quot;, Roboto, Arial, sans-serif; font-size: 16px; text-align: start; text-wrap: nowrap; background-color: rgb(241, 250, 255);&quot;&gt;10.0.20.0/24&lt;/span&gt;" style="text;html=1;align=center;verticalAlign=middle;whiteSpace=wrap;rounded=0;" parent="TT2iFtD28jyIN-6uqShI-7" vertex="1">
          <mxGeometry x="110" y="170" width="100" height="30" as="geometry" />
        </mxCell>
        <mxCell id="SQyDNQfeGK3AQmLS2qU3-57" value="" style="endArrow=none;dashed=1;html=1;dashPattern=1 3;strokeWidth=2;rounded=0;" edge="1" parent="TT2iFtD28jyIN-6uqShI-7">
          <mxGeometry width="50" height="50" relative="1" as="geometry">
            <mxPoint x="-14" y="210" as="sourcePoint" />
            <mxPoint x="236" y="210" as="targetPoint" />
          </mxGeometry>
        </mxCell>
        <mxCell id="SQyDNQfeGK3AQmLS2qU3-4" value="Public subnet" style="points=[[0,0],[0.25,0],[0.5,0],[0.75,0],[1,0],[1,0.25],[1,0.5],[1,0.75],[1,1],[0.75,1],[0.5,1],[0.25,1],[0,1],[0,0.75],[0,0.5],[0,0.25]];outlineConnect=0;gradientColor=none;html=1;whiteSpace=wrap;fontSize=12;fontStyle=0;container=1;pointerEvents=0;collapsible=0;recursiveResize=0;shape=mxgraph.aws4.group;grIcon=mxgraph.aws4.group_security_group;grStroke=0;strokeColor=#7AA116;fillColor=#F2F6E8;verticalAlign=top;align=left;spacingLeft=30;fontColor=#248814;dashed=0;" vertex="1" parent="TT2iFtD28jyIN-6uqShI-2">
          <mxGeometry x="290" y="120" width="217" height="200" as="geometry" />
        </mxCell>
        <mxCell id="SQyDNQfeGK3AQmLS2qU3-6" value="&lt;span style=&quot;color: rgb(22, 25, 31); font-family: &amp;quot;Amazon Ember&amp;quot;, &amp;quot;Helvetica Neue&amp;quot;, Roboto, Arial, sans-serif; text-align: start; text-wrap: nowrap; background-color: rgb(241, 250, 255);&quot;&gt;&lt;font style=&quot;font-size: 16px;&quot;&gt;10.0.11.0/24&lt;/font&gt;&lt;/span&gt;" style="text;html=1;align=center;verticalAlign=middle;whiteSpace=wrap;rounded=0;" vertex="1" parent="SQyDNQfeGK3AQmLS2qU3-4">
          <mxGeometry x="110" y="169" width="100" height="30" as="geometry" />
        </mxCell>
        <mxCell id="SQyDNQfeGK3AQmLS2qU3-22" value="" style="endArrow=none;dashed=1;html=1;dashPattern=1 3;strokeWidth=2;rounded=0;" edge="1" parent="TT2iFtD28jyIN-6uqShI-2">
          <mxGeometry width="50" height="50" relative="1" as="geometry">
            <mxPoint x="270" y="550" as="sourcePoint" />
            <mxPoint x="270" y="110" as="targetPoint" />
            <Array as="points">
              <mxPoint x="270" y="500" />
            </Array>
          </mxGeometry>
        </mxCell>
        <mxCell id="SQyDNQfeGK3AQmLS2qU3-23" value="" style="edgeStyle=orthogonalEdgeStyle;rounded=0;orthogonalLoop=1;jettySize=auto;html=1;" edge="1" parent="TT2iFtD28jyIN-6uqShI-2" source="_2Wj-928AClty6SUkouG-1" target="TT2iFtD28jyIN-6uqShI-8">
          <mxGeometry relative="1" as="geometry" />
        </mxCell>
        <mxCell id="SQyDNQfeGK3AQmLS2qU3-24" value="Availability Zone 1a" style="text;html=1;align=center;verticalAlign=middle;whiteSpace=wrap;rounded=0;" vertex="1" parent="TT2iFtD28jyIN-6uqShI-2">
          <mxGeometry x="210" y="80" width="60" height="30" as="geometry" />
        </mxCell>
        <mxCell id="SQyDNQfeGK3AQmLS2qU3-25" value="Availability Zone 1c" style="text;html=1;align=center;verticalAlign=middle;whiteSpace=wrap;rounded=0;" vertex="1" parent="TT2iFtD28jyIN-6uqShI-2">
          <mxGeometry x="480" y="80" width="60" height="30" as="geometry" />
        </mxCell>
        <mxCell id="SQyDNQfeGK3AQmLS2qU3-33" value="" style="edgeStyle=orthogonalEdgeStyle;rounded=0;orthogonalLoop=1;jettySize=auto;html=1;" edge="1" parent="TT2iFtD28jyIN-6uqShI-2" source="SQyDNQfeGK3AQmLS2qU3-12">
          <mxGeometry relative="1" as="geometry">
            <mxPoint x="130" y="120" as="targetPoint" />
          </mxGeometry>
        </mxCell>
        <mxCell id="SQyDNQfeGK3AQmLS2qU3-34" value="" style="edgeStyle=orthogonalEdgeStyle;rounded=0;orthogonalLoop=1;jettySize=auto;html=1;" edge="1" parent="TT2iFtD28jyIN-6uqShI-2" source="SQyDNQfeGK3AQmLS2qU3-12" target="SQyDNQfeGK3AQmLS2qU3-4">
          <mxGeometry relative="1" as="geometry" />
        </mxCell>
        <mxCell id="SQyDNQfeGK3AQmLS2qU3-12" value="" style="sketch=0;outlineConnect=0;fontColor=#232F3E;gradientColor=none;fillColor=#8C4FFF;strokeColor=none;dashed=0;verticalLabelPosition=bottom;verticalAlign=top;align=center;html=1;fontSize=12;fontStyle=0;aspect=fixed;pointerEvents=1;shape=mxgraph.aws4.application_load_balancer;direction=east;" vertex="1" parent="TT2iFtD28jyIN-6uqShI-2">
          <mxGeometry x="110" y="50" width="40" height="40" as="geometry" />
        </mxCell>
        <mxCell id="SQyDNQfeGK3AQmLS2qU3-31" value="" style="edgeStyle=orthogonalEdgeStyle;rounded=0;orthogonalLoop=1;jettySize=auto;html=1;" edge="1" parent="TT2iFtD28jyIN-6uqShI-2" source="TT2iFtD28jyIN-6uqShI-14" target="SQyDNQfeGK3AQmLS2qU3-12">
          <mxGeometry relative="1" as="geometry" />
        </mxCell>
        <mxCell id="TT2iFtD28jyIN-6uqShI-14" value="" style="sketch=0;outlineConnect=0;fontColor=#232F3E;gradientColor=none;fillColor=#8C4FFF;strokeColor=none;dashed=0;verticalLabelPosition=bottom;verticalAlign=top;align=center;html=1;fontSize=12;fontStyle=0;aspect=fixed;pointerEvents=1;shape=mxgraph.aws4.internet_gateway;" parent="TT2iFtD28jyIN-6uqShI-2" vertex="1">
          <mxGeometry x="110" y="-20" width="40" height="40" as="geometry" />
        </mxCell>
        <mxCell id="SQyDNQfeGK3AQmLS2qU3-13" value="&lt;span style=&quot;font-size: 14px;&quot;&gt;ALB&lt;/span&gt;" style="text;html=1;align=center;verticalAlign=middle;whiteSpace=wrap;rounded=0;" vertex="1" parent="TT2iFtD28jyIN-6uqShI-2">
          <mxGeometry x="60" y="60" width="50" height="20" as="geometry" />
        </mxCell>
        <mxCell id="SQyDNQfeGK3AQmLS2qU3-55" value="" style="endArrow=none;dashed=1;html=1;dashPattern=1 3;strokeWidth=2;rounded=0;" edge="1" parent="TT2iFtD28jyIN-6uqShI-2">
          <mxGeometry width="50" height="50" relative="1" as="geometry">
            <mxPoint x="20" y="550" as="sourcePoint" />
            <mxPoint x="21" y="110" as="targetPoint" />
            <Array as="points">
              <mxPoint x="21" y="500" />
            </Array>
          </mxGeometry>
        </mxCell>
        <mxCell id="SQyDNQfeGK3AQmLS2qU3-59" value="" style="endArrow=none;dashed=1;html=1;dashPattern=1 3;strokeWidth=2;rounded=0;" edge="1" parent="TT2iFtD28jyIN-6uqShI-2">
          <mxGeometry width="50" height="50" relative="1" as="geometry">
            <mxPoint x="20" y="110" as="sourcePoint" />
            <mxPoint x="270" y="110" as="targetPoint" />
          </mxGeometry>
        </mxCell>
        <mxCell id="SQyDNQfeGK3AQmLS2qU3-60" value="" style="endArrow=none;dashed=1;html=1;dashPattern=1 3;strokeWidth=2;rounded=0;" edge="1" parent="TT2iFtD28jyIN-6uqShI-2">
          <mxGeometry width="50" height="50" relative="1" as="geometry">
            <mxPoint x="280" y="110" as="sourcePoint" />
            <mxPoint x="530" y="110" as="targetPoint" />
          </mxGeometry>
        </mxCell>
        <mxCell id="SQyDNQfeGK3AQmLS2qU3-61" value="" style="endArrow=none;dashed=1;html=1;dashPattern=1 3;strokeWidth=2;rounded=0;" edge="1" parent="TT2iFtD28jyIN-6uqShI-2">
          <mxGeometry width="50" height="50" relative="1" as="geometry">
            <mxPoint x="280" y="550" as="sourcePoint" />
            <mxPoint x="281" y="110" as="targetPoint" />
            <Array as="points">
              <mxPoint x="281" y="500" />
            </Array>
          </mxGeometry>
        </mxCell>
        <mxCell id="SQyDNQfeGK3AQmLS2qU3-62" value="" style="endArrow=none;dashed=1;html=1;dashPattern=1 3;strokeWidth=2;rounded=0;" edge="1" parent="TT2iFtD28jyIN-6uqShI-2">
          <mxGeometry width="50" height="50" relative="1" as="geometry">
            <mxPoint x="530" y="550" as="sourcePoint" />
            <mxPoint x="531" y="110" as="targetPoint" />
            <Array as="points">
              <mxPoint x="531" y="500" />
            </Array>
          </mxGeometry>
        </mxCell>
        <mxCell id="SQyDNQfeGK3AQmLS2qU3-63" value="" style="endArrow=none;dashed=1;html=1;dashPattern=1 3;strokeWidth=2;rounded=0;" edge="1" parent="TT2iFtD28jyIN-6uqShI-2">
          <mxGeometry width="50" height="50" relative="1" as="geometry">
            <mxPoint x="280" y="550" as="sourcePoint" />
            <mxPoint x="530" y="550" as="targetPoint" />
          </mxGeometry>
        </mxCell>
        <mxCell id="TT2iFtD28jyIN-6uqShI-16" value="&lt;font style=&quot;font-size: 14px;&quot;&gt;Internet Gateway&lt;/font&gt;" style="text;html=1;align=center;verticalAlign=middle;whiteSpace=wrap;rounded=0;" parent="TT2iFtD28jyIN-6uqShI-1" vertex="1">
          <mxGeometry x="230" y="20" width="131" height="20" as="geometry" />
        </mxCell>
        <mxCell id="_2Wj-928AClty6SUkouG-5" value="" style="outlineConnect=0;dashed=0;verticalLabelPosition=bottom;verticalAlign=top;align=center;html=1;shape=mxgraph.aws3.cloudfront;fillColor=#F58536;gradientColor=none;" parent="TT2iFtD28jyIN-6uqShI-1" vertex="1">
          <mxGeometry x="55.75" y="40" width="76.5" height="93" as="geometry" />
        </mxCell>
        <mxCell id="_2Wj-928AClty6SUkouG-7" value="&lt;span style=&quot;font-size: 16px;&quot;&gt;CloudFront&lt;/span&gt;" style="text;html=1;align=center;verticalAlign=middle;whiteSpace=wrap;rounded=0;" parent="TT2iFtD28jyIN-6uqShI-1" vertex="1">
          <mxGeometry x="132.25" y="120" width="60" height="30" as="geometry" />
        </mxCell>
        <mxCell id="SQyDNQfeGK3AQmLS2qU3-27" style="edgeStyle=orthogonalEdgeStyle;rounded=0;orthogonalLoop=1;jettySize=auto;html=1;" edge="1" parent="TT2iFtD28jyIN-6uqShI-1" target="TT2iFtD28jyIN-6uqShI-14">
          <mxGeometry relative="1" as="geometry">
            <mxPoint x="370" y="-45.5" as="sourcePoint" />
          </mxGeometry>
        </mxCell>
        <mxCell id="_2Wj-928AClty6SUkouG-4" value="" style="outlineConnect=0;dashed=0;verticalLabelPosition=bottom;verticalAlign=top;align=center;html=1;shape=mxgraph.aws3.s3;fillColor=#E05243;gradientColor=none;" parent="TT2iFtD28jyIN-6uqShI-1" vertex="1">
          <mxGeometry x="55.75" y="200" width="76.5" height="93" as="geometry" />
        </mxCell>
        <mxCell id="_2Wj-928AClty6SUkouG-22" value="" style="edgeStyle=orthogonalEdgeStyle;rounded=0;orthogonalLoop=1;jettySize=auto;html=1;" parent="TT2iFtD28jyIN-6uqShI-1" source="_2Wj-928AClty6SUkouG-5" target="_2Wj-928AClty6SUkouG-4" edge="1">
          <mxGeometry relative="1" as="geometry" />
        </mxCell>
        <mxCell id="_2Wj-928AClty6SUkouG-24" value="キャッシュ" style="edgeLabel;html=1;align=center;verticalAlign=middle;resizable=0;points=[];" parent="_2Wj-928AClty6SUkouG-22" vertex="1" connectable="0">
          <mxGeometry x="0.0118" relative="1" as="geometry">
            <mxPoint as="offset" />
          </mxGeometry>
        </mxCell>
        <mxCell id="SQyDNQfeGK3AQmLS2qU3-35" style="edgeStyle=orthogonalEdgeStyle;rounded=0;orthogonalLoop=1;jettySize=auto;html=1;" edge="1" parent="TT2iFtD28jyIN-6uqShI-1" source="_2Wj-928AClty6SUkouG-1" target="_2Wj-928AClty6SUkouG-4">
          <mxGeometry relative="1" as="geometry" />
        </mxCell>
        <mxCell id="SQyDNQfeGK3AQmLS2qU3-36" value="画像のアップロード" style="edgeLabel;html=1;align=center;verticalAlign=middle;resizable=0;points=[];" vertex="1" connectable="0" parent="SQyDNQfeGK3AQmLS2qU3-35">
          <mxGeometry x="0.1125" y="1" relative="1" as="geometry">
            <mxPoint x="1" as="offset" />
          </mxGeometry>
        </mxCell>
        <mxCell id="SQyDNQfeGK3AQmLS2qU3-44" value="" style="edgeStyle=orthogonalEdgeStyle;rounded=0;orthogonalLoop=1;jettySize=auto;html=1;" edge="1" parent="TT2iFtD28jyIN-6uqShI-1" source="SQyDNQfeGK3AQmLS2qU3-37" target="SQyDNQfeGK3AQmLS2qU3-43">
          <mxGeometry relative="1" as="geometry" />
        </mxCell>
        <mxCell id="SQyDNQfeGK3AQmLS2qU3-37" value="" style="sketch=0;points=[[0,0,0],[0.25,0,0],[0.5,0,0],[0.75,0,0],[1,0,0],[0,1,0],[0.25,1,0],[0.5,1,0],[0.75,1,0],[1,1,0],[0,0.25,0],[0,0.5,0],[0,0.75,0],[1,0.25,0],[1,0.5,0],[1,0.75,0]];outlineConnect=0;fontColor=#232F3E;gradientColor=#4D72F3;gradientDirection=north;fillColor=#3334B9;strokeColor=#ffffff;dashed=0;verticalLabelPosition=bottom;verticalAlign=top;align=center;html=1;fontSize=12;fontStyle=0;aspect=fixed;shape=mxgraph.aws4.resourceIcon;resIcon=mxgraph.aws4.simple_email_service;" vertex="1" parent="TT2iFtD28jyIN-6uqShI-1">
          <mxGeometry x="55.75" y="560" width="78" height="78" as="geometry" />
        </mxCell>
        <mxCell id="SQyDNQfeGK3AQmLS2qU3-38" style="edgeStyle=orthogonalEdgeStyle;rounded=0;orthogonalLoop=1;jettySize=auto;html=1;" edge="1" parent="TT2iFtD28jyIN-6uqShI-1" source="_2Wj-928AClty6SUkouG-1" target="SQyDNQfeGK3AQmLS2qU3-37">
          <mxGeometry relative="1" as="geometry">
            <Array as="points">
              <mxPoint x="210" y="260" />
              <mxPoint x="210" y="600" />
            </Array>
          </mxGeometry>
        </mxCell>
        <mxCell id="_2Wj-928AClty6SUkouG-8" value="&lt;span style=&quot;font-size: 16px;&quot;&gt;S3&lt;/span&gt;" style="text;html=1;align=center;verticalAlign=middle;whiteSpace=wrap;rounded=0;" parent="TT2iFtD28jyIN-6uqShI-1" vertex="1">
          <mxGeometry x="64" y="293" width="60" height="30" as="geometry" />
        </mxCell>
        <mxCell id="SQyDNQfeGK3AQmLS2qU3-39" value="&lt;span style=&quot;font-size: 16px;&quot;&gt;Amazon SES&lt;/span&gt;" style="text;html=1;align=center;verticalAlign=middle;whiteSpace=wrap;rounded=0;" vertex="1" parent="TT2iFtD28jyIN-6uqShI-1">
          <mxGeometry x="26.5" y="638" width="135" height="20" as="geometry" />
        </mxCell>
        <mxCell id="SQyDNQfeGK3AQmLS2qU3-43" value="" style="sketch=0;points=[[0,0,0],[0.25,0,0],[0.5,0,0],[0.75,0,0],[1,0,0],[0,1,0],[0.25,1,0],[0.5,1,0],[0.75,1,0],[1,1,0],[0,0.25,0],[0,0.5,0],[0,0.75,0],[1,0.25,0],[1,0.5,0],[1,0.75,0]];outlineConnect=0;fontColor=#232F3E;fillColor=#E7157B;strokeColor=#ffffff;dashed=0;verticalLabelPosition=bottom;verticalAlign=top;align=center;html=1;fontSize=12;fontStyle=0;aspect=fixed;shape=mxgraph.aws4.resourceIcon;resIcon=mxgraph.aws4.sns;" vertex="1" parent="TT2iFtD28jyIN-6uqShI-1">
          <mxGeometry x="55.75" y="430" width="78" height="78" as="geometry" />
        </mxCell>
        <mxCell id="SQyDNQfeGK3AQmLS2qU3-45" value="&lt;span style=&quot;font-size: 16px;&quot;&gt;Amazon SN&lt;/span&gt;&lt;span style=&quot;font-size: 16px; background-color: initial;&quot;&gt;S&lt;/span&gt;" style="text;html=1;align=center;verticalAlign=middle;whiteSpace=wrap;rounded=0;" vertex="1" parent="TT2iFtD28jyIN-6uqShI-1">
          <mxGeometry x="80" y="520" width="135" height="20" as="geometry" />
        </mxCell>
        <mxCell id="_2Wj-928AClty6SUkouG-12" value="" style="edgeStyle=orthogonalEdgeStyle;rounded=0;orthogonalLoop=1;jettySize=auto;html=1;" parent="1" source="TT2iFtD28jyIN-6uqShI-18" target="_2Wj-928AClty6SUkouG-5" edge="1">
          <mxGeometry relative="1" as="geometry" />
        </mxCell>
        <mxCell id="TT2iFtD28jyIN-6uqShI-18" value="" style="sketch=0;outlineConnect=0;fontColor=#232F3E;gradientColor=none;fillColor=#232F3D;strokeColor=none;dashed=0;verticalLabelPosition=bottom;verticalAlign=top;align=center;html=1;fontSize=12;fontStyle=0;aspect=fixed;pointerEvents=1;shape=mxgraph.aws4.internet_alt2;" parent="1" vertex="1">
          <mxGeometry x="193.5" y="60" width="81" height="81" as="geometry" />
        </mxCell>
        <mxCell id="TT2iFtD28jyIN-6uqShI-19" style="edgeStyle=orthogonalEdgeStyle;rounded=0;orthogonalLoop=1;jettySize=auto;html=1;" parent="1" target="TT2iFtD28jyIN-6uqShI-18" edge="1">
          <mxGeometry relative="1" as="geometry">
            <mxPoint x="95.4147616392529" y="100.5" as="sourcePoint" />
          </mxGeometry>
        </mxCell>
        <mxCell id="TT2iFtD28jyIN-6uqShI-21" value="&lt;span style=&quot;font-size: 16px;&quot;&gt;ユーザー&lt;/span&gt;" style="text;html=1;align=center;verticalAlign=middle;whiteSpace=wrap;rounded=0;" parent="1" vertex="1">
          <mxGeometry x="17.75" y="141" width="83.25" height="19" as="geometry" />
        </mxCell>
        <mxCell id="TT2iFtD28jyIN-6uqShI-22" value="&lt;span style=&quot;font-size: 16px;&quot;&gt;Internet&lt;/span&gt;" style="text;html=1;align=center;verticalAlign=middle;whiteSpace=wrap;rounded=0;" parent="1" vertex="1">
          <mxGeometry x="157.75" y="115.75" width="60" height="30" as="geometry" />
        </mxCell>
        <mxCell id="TT2iFtD28jyIN-6uqShI-51" style="edgeStyle=orthogonalEdgeStyle;rounded=0;orthogonalLoop=1;jettySize=auto;html=1;exitX=0;exitY=0.5;exitDx=0;exitDy=0;" parent="1" target="TT2iFtD28jyIN-6uqShI-50" edge="1">
          <mxGeometry relative="1" as="geometry">
            <mxPoint x="825.5" y="100.5" as="sourcePoint" />
          </mxGeometry>
        </mxCell>
        <mxCell id="SQyDNQfeGK3AQmLS2qU3-65" value="Push" style="edgeLabel;html=1;align=center;verticalAlign=middle;resizable=0;points=[];" vertex="1" connectable="0" parent="TT2iFtD28jyIN-6uqShI-51">
          <mxGeometry x="-0.0066" y="2" relative="1" as="geometry">
            <mxPoint x="-1" y="1" as="offset" />
          </mxGeometry>
        </mxCell>
        <mxCell id="TT2iFtD28jyIN-6uqShI-39" value="" style="rounded=1;whiteSpace=wrap;html=1;" parent="1" vertex="1">
          <mxGeometry x="827" y="38.25" width="333" height="124.5" as="geometry" />
        </mxCell>
        <mxCell id="TT2iFtD28jyIN-6uqShI-42" value="&lt;font style=&quot;font-size: 16px;&quot;&gt;開発PC&lt;/font&gt;" style="text;html=1;align=center;verticalAlign=middle;whiteSpace=wrap;rounded=0;" parent="1" vertex="1">
          <mxGeometry x="835.5" y="42.5" width="60" height="30" as="geometry" />
        </mxCell>
        <mxCell id="TT2iFtD28jyIN-6uqShI-44" value="" style="image;sketch=0;aspect=fixed;html=1;points=[];align=center;fontSize=12;image=img/lib/mscae/Docker.svg;" parent="1" vertex="1">
          <mxGeometry x="1065.5" y="72.5" width="76.22" height="62.5" as="geometry" />
        </mxCell>
        <mxCell id="TT2iFtD28jyIN-6uqShI-45" value="" style="sketch=0;outlineConnect=0;fontColor=#232F3E;gradientColor=none;fillColor=#01A88D;strokeColor=none;dashed=0;verticalLabelPosition=bottom;verticalAlign=top;align=center;html=1;fontSize=12;fontStyle=0;aspect=fixed;shape=mxgraph.aws4.mainframe_modernization_developer;" parent="1" vertex="1">
          <mxGeometry x="885.5" y="72.5" width="62.5" height="62.5" as="geometry" />
        </mxCell>
        <mxCell id="TT2iFtD28jyIN-6uqShI-46" value="Developer" style="text;html=1;align=center;verticalAlign=middle;whiteSpace=wrap;rounded=0;" parent="1" vertex="1">
          <mxGeometry x="835.5" y="130" width="89.5" height="30" as="geometry" />
        </mxCell>
        <mxCell id="TT2iFtD28jyIN-6uqShI-53" style="edgeStyle=orthogonalEdgeStyle;rounded=0;orthogonalLoop=1;jettySize=auto;html=1;" parent="1" edge="1" target="TT2iFtD28jyIN-6uqShI-3">
          <mxGeometry relative="1" as="geometry">
            <mxPoint x="687.5" y="100" as="sourcePoint" />
            <mxPoint x="538" y="160" as="targetPoint" />
            <Array as="points">
              <mxPoint x="560" y="100" />
            </Array>
          </mxGeometry>
        </mxCell>
        <mxCell id="_2Wj-928AClty6SUkouG-25" value="デプロイ" style="edgeLabel;html=1;align=center;verticalAlign=middle;resizable=0;points=[];" parent="TT2iFtD28jyIN-6uqShI-53" vertex="1" connectable="0">
          <mxGeometry x="-0.1144" y="-2" relative="1" as="geometry">
            <mxPoint x="32" y="-28" as="offset" />
          </mxGeometry>
        </mxCell>
        <mxCell id="TT2iFtD28jyIN-6uqShI-50" value="" style="dashed=0;outlineConnect=0;html=1;align=center;labelPosition=center;verticalLabelPosition=bottom;verticalAlign=top;shape=mxgraph.weblogos.github" parent="1" vertex="1">
          <mxGeometry x="675.5" y="63" width="75" height="75" as="geometry" />
        </mxCell>
        <mxCell id="TT2iFtD28jyIN-6uqShI-54" value="&lt;font style=&quot;font-size: 16px;&quot;&gt;GitHub&lt;/font&gt;" style="text;html=1;align=center;verticalAlign=middle;whiteSpace=wrap;rounded=0;" parent="1" vertex="1">
          <mxGeometry x="683" y="35.5" width="60" height="30" as="geometry" />
        </mxCell>
        <mxCell id="TT2iFtD28jyIN-6uqShI-83" value="" style="endArrow=classic;startArrow=classic;html=1;rounded=0;" parent="1" edge="1">
          <mxGeometry width="50" height="50" relative="1" as="geometry">
            <mxPoint x="975.5" y="103.25" as="sourcePoint" />
            <mxPoint x="1045.5" y="103.25" as="targetPoint" />
          </mxGeometry>
        </mxCell>
        <mxCell id="SQyDNQfeGK3AQmLS2qU3-29" value="" style="edgeStyle=orthogonalEdgeStyle;rounded=0;orthogonalLoop=1;jettySize=auto;html=1;" edge="1" parent="1" source="TT2iFtD28jyIN-6uqShI-18" target="SQyDNQfeGK3AQmLS2qU3-28">
          <mxGeometry relative="1" as="geometry">
            <mxPoint x="275" y="101" as="sourcePoint" />
            <mxPoint x="531" y="160" as="targetPoint" />
          </mxGeometry>
        </mxCell>
        <mxCell id="SQyDNQfeGK3AQmLS2qU3-28" value="" style="sketch=0;points=[[0,0,0],[0.25,0,0],[0.5,0,0],[0.75,0,0],[1,0,0],[0,1,0],[0.25,1,0],[0.5,1,0],[0.75,1,0],[1,1,0],[0,0.25,0],[0,0.5,0],[0,0.75,0],[1,0.25,0],[1,0.5,0],[1,0.75,0]];outlineConnect=0;fontColor=#232F3E;fillColor=#8C4FFF;strokeColor=#ffffff;dashed=0;verticalLabelPosition=bottom;verticalAlign=top;align=center;html=1;fontSize=12;fontStyle=0;aspect=fixed;shape=mxgraph.aws4.resourceIcon;resIcon=mxgraph.aws4.route_53;" vertex="1" parent="1">
          <mxGeometry x="470" y="64.13" width="72.75" height="72.75" as="geometry" />
        </mxCell>
        <mxCell id="SQyDNQfeGK3AQmLS2qU3-46" value="" style="sketch=0;outlineConnect=0;fontColor=#232F3E;gradientColor=none;fillColor=#232F3D;strokeColor=none;dashed=0;verticalLabelPosition=bottom;verticalAlign=top;align=center;html=1;fontSize=12;fontStyle=0;aspect=fixed;pointerEvents=1;shape=mxgraph.aws4.authenticated_user;" vertex="1" parent="1">
          <mxGeometry x="60" y="615.5" width="47" height="47" as="geometry" />
        </mxCell>
        <mxCell id="SQyDNQfeGK3AQmLS2qU3-47" value="" style="edgeStyle=orthogonalEdgeStyle;rounded=0;orthogonalLoop=1;jettySize=auto;html=1;" edge="1" parent="1" source="SQyDNQfeGK3AQmLS2qU3-43" target="SQyDNQfeGK3AQmLS2qU3-46">
          <mxGeometry relative="1" as="geometry" />
        </mxCell>
        <mxCell id="SQyDNQfeGK3AQmLS2qU3-50" value="バウンス&lt;div&gt;メール等&lt;/div&gt;" style="edgeLabel;html=1;align=center;verticalAlign=middle;resizable=0;points=[];" vertex="1" connectable="0" parent="SQyDNQfeGK3AQmLS2qU3-47">
          <mxGeometry x="-0.1944" y="1" relative="1" as="geometry">
            <mxPoint as="offset" />
          </mxGeometry>
        </mxCell>
        <mxCell id="SQyDNQfeGK3AQmLS2qU3-48" style="edgeStyle=orthogonalEdgeStyle;rounded=0;orthogonalLoop=1;jettySize=auto;html=1;entryX=0.25;entryY=1;entryDx=0;entryDy=0;" edge="1" parent="1" source="SQyDNQfeGK3AQmLS2qU3-37" target="TT2iFtD28jyIN-6uqShI-21">
          <mxGeometry relative="1" as="geometry" />
        </mxCell>
        <mxCell id="SQyDNQfeGK3AQmLS2qU3-49" value="お知らせメール" style="edgeLabel;html=1;align=center;verticalAlign=middle;resizable=0;points=[];" vertex="1" connectable="0" parent="SQyDNQfeGK3AQmLS2qU3-48">
          <mxGeometry x="0.1515" y="1" relative="1" as="geometry">
            <mxPoint as="offset" />
          </mxGeometry>
        </mxCell>
        <mxCell id="SQyDNQfeGK3AQmLS2qU3-51" value="&lt;span style=&quot;font-size: 16px;&quot;&gt;サイト管理者&lt;/span&gt;" style="text;html=1;align=center;verticalAlign=middle;whiteSpace=wrap;rounded=0;" vertex="1" parent="1">
          <mxGeometry x="40" y="670" width="100" height="10" as="geometry" />
        </mxCell>
        <mxCell id="SQyDNQfeGK3AQmLS2qU3-52" value="" style="sketch=0;outlineConnect=0;fontColor=#232F3E;gradientColor=none;fillColor=#232F3D;strokeColor=none;dashed=0;verticalLabelPosition=bottom;verticalAlign=top;align=center;html=1;fontSize=12;fontStyle=0;aspect=fixed;pointerEvents=1;shape=mxgraph.aws4.user;" vertex="1" parent="1">
          <mxGeometry x="17.75" y="58.879999999999995" width="78" height="78" as="geometry" />
        </mxCell>
        <mxCell id="SQyDNQfeGK3AQmLS2qU3-54" value="&lt;span style=&quot;font-size: 16px;&quot;&gt;Route 53&lt;/span&gt;" style="text;html=1;align=center;verticalAlign=middle;whiteSpace=wrap;rounded=0;" vertex="1" parent="1">
          <mxGeometry x="450" y="42.5" width="103.62" height="18.25" as="geometry" />
        </mxCell>
      </root>
    </mxGraphModel>
  </diagram>
</mxfile>
